<svg width="130" height="40" viewBox="0 0 130 40" fill="none" xmlns="http://www.w3.org/2000/svg">
<path d="M66.4641 26.75H63.4399L68.0479 13.4017H71.6848L76.2863 26.75H73.2621L69.9185 16.452H69.8142L66.4641 26.75ZM66.2751 21.5032H73.4185V23.7062H66.2751V21.5032ZM77.8929 26.75V13.4017H83.1592C84.1673 13.4017 85.0276 13.5821 85.7402 13.9427C86.4572 14.299 87.0025 14.8052 87.3762 15.4613C87.7542 16.1131 87.9432 16.88 87.9432 17.7621C87.9432 18.6485 87.752 19.4111 87.3696 20.0498C86.9873 20.6842 86.4333 21.1708 85.7076 21.5098C84.9863 21.8487 84.113 22.0181 83.0875 22.0181H79.5614V19.75H82.6313C83.1701 19.75 83.6176 19.6761 83.9739 19.5284C84.3302 19.3806 84.5953 19.159 84.7691 18.8636C84.9472 18.5681 85.0363 18.2009 85.0363 17.7621C85.0363 17.3189 84.9472 16.9452 84.7691 16.641C84.5953 16.3369 84.328 16.1066 83.9674 15.9502C83.6111 15.7894 83.1614 15.709 82.6182 15.709H80.7151V26.75H77.8929ZM85.1015 20.6755L88.419 26.75H85.3035L82.0577 20.6755H85.1015ZM102.204 20.0759C102.204 21.5315 101.928 22.7699 101.376 23.791C100.829 24.8121 100.081 25.592 99.1341 26.1308C98.1912 26.6653 97.131 26.9325 95.9535 26.9325C94.7672 26.9325 93.7027 26.6631 92.7598 26.1243C91.8169 25.5855 91.0717 24.8055 90.5242 23.7844C89.9767 22.7633 89.703 21.5271 89.703 20.0759C89.703 18.6202 89.9767 17.3819 90.5242 16.3608C91.0717 15.3397 91.8169 14.5619 92.7598 14.0274C93.7027 13.4886 94.7672 13.2192 95.9535 13.2192C97.131 13.2192 98.1912 13.4886 99.1341 14.0274C100.081 14.5619 100.829 15.3397 101.376 16.3608C101.928 17.3819 102.204 18.6202 102.204 20.0759ZM99.3427 20.0759C99.3427 19.133 99.2015 18.3378 98.919 17.6904C98.6409 17.043 98.2477 16.552 97.7393 16.2174C97.2309 15.8828 96.6356 15.7155 95.9535 15.7155C95.2713 15.7155 94.676 15.8828 94.1676 16.2174C93.6592 16.552 93.2638 17.043 92.9814 17.6904C92.7033 18.3378 92.5643 19.133 92.5643 20.0759C92.5643 21.0188 92.7033 21.8139 92.9814 22.4613C93.2638 23.1088 93.6592 23.5998 94.1676 23.9343C94.676 24.2689 95.2713 24.4362 95.9535 24.4362C96.6356 24.4362 97.2309 24.2689 97.7393 23.9343C98.2477 23.5998 98.6409 23.1088 98.919 22.4613C99.2015 21.8139 99.3427 21.0188 99.3427 20.0759ZM109.026 26.75H104.295V13.4017H109.065C110.408 13.4017 111.564 13.669 112.533 14.2034C113.502 14.7335 114.247 15.4961 114.768 16.4911C115.294 17.4862 115.557 18.6767 115.557 20.0628C115.557 21.4533 115.294 22.6482 114.768 23.6476C114.247 24.647 113.498 25.4139 112.52 25.9483C111.547 26.4828 110.382 26.75 109.026 26.75ZM107.117 24.3319H108.909C109.743 24.3319 110.445 24.1842 111.014 23.8887C111.588 23.5889 112.018 23.1262 112.305 22.5005C112.596 21.8704 112.741 21.0579 112.741 20.0628C112.741 19.0765 112.596 18.2705 112.305 17.6448C112.018 17.0191 111.59 16.5585 111.021 16.263C110.452 15.9675 109.75 15.8198 108.916 15.8198H107.117V24.3319ZM119.196 26.75H116.171L120.779 13.4017H124.416L129.018 26.75H125.994L122.65 16.452H122.546L119.196 26.75ZM119.007 21.5032H126.15V23.7062H119.007V21.5032Z" fill="white"/>
<rect width="42.0032" height="40" rx="7.5" fill="white"/>
<path fill-rule="evenodd" clip-rule="evenodd" d="M20.774 7.30377L22.4566 8.23237L8.07764 30.7758H12.4919L25.7345 9.93152L27.3735 10.7416L27.439 3.84619L20.774 7.30377ZM34.6722 30.7758L24.926 15.4044L22.8063 18.8817L30.2143 30.7758H34.6722Z" fill="#0C274C"/>
<path fill-rule="evenodd" clip-rule="evenodd" d="M27.7237 30.7756L21.2772 20.9561L15.2896 30.7756H19.2886L21.2772 27.7131L23.3094 30.7756H27.7237Z" fill="#F9D84B"/>
</svg>
