<svg width="86" height="83" viewBox="0 0 86 83" fill="none" xmlns="http://www.w3.org/2000/svg">
<path d="M4.44521 76.3484H0.560883L6.47946 59.2038H11.1507L17.0609 76.3484H13.1766L8.88205 63.1216H8.74811L4.44521 76.3484ZM4.20244 69.6094H13.3775V72.4389H4.20244V69.6094ZM19.1244 76.3484V59.2038H25.8885C27.1833 59.2038 28.2883 59.4354 29.2036 59.8986C30.1245 60.3562 30.8249 61.0064 31.3048 61.8491C31.7904 62.6863 32.0331 63.6713 32.0331 64.8042C32.0331 65.9427 31.7876 66.9222 31.2965 67.7426C30.8053 68.5574 30.0938 69.1825 29.1618 69.6178C28.2353 70.0531 27.1135 70.2708 25.7964 70.2708H21.2675V67.3575H25.2105C25.9025 67.3575 26.4773 67.2626 26.935 67.0729C27.3926 66.8831 27.733 66.5985 27.9563 66.219C28.1851 65.8395 28.2995 65.3679 28.2995 64.8042C28.2995 64.235 28.1851 63.755 27.9563 63.3644C27.733 62.9737 27.3898 62.6779 26.9266 62.477C26.469 62.2705 25.8913 62.1672 25.1937 62.1672H22.7493V76.3484H19.1244ZM28.3832 68.5462L32.6442 76.3484H28.6427L24.4738 68.5462H28.3832ZM50.3497 67.7761C50.3497 69.6457 49.9954 71.2363 49.2866 72.5478C48.5834 73.8593 47.6235 74.8611 46.4068 75.5531C45.1958 76.2396 43.834 76.5828 42.3216 76.5828C40.798 76.5828 39.4307 76.2368 38.2196 75.5447C37.0085 74.8527 36.0514 73.8509 35.3482 72.5394C34.645 71.2279 34.2934 69.6401 34.2934 67.7761C34.2934 65.9065 34.645 64.3159 35.3482 63.0044C36.0514 61.6929 37.0085 60.6939 38.2196 60.0074C39.4307 59.3154 40.798 58.9694 42.3216 58.9694C43.834 58.9694 45.1958 59.3154 46.4068 60.0074C47.6235 60.6939 48.5834 61.6929 49.2866 63.0044C49.9954 64.3159 50.3497 65.9065 50.3497 67.7761ZM46.6747 67.7761C46.6747 66.565 46.4933 65.5437 46.1306 64.7122C45.7734 63.8806 45.2683 63.2499 44.6153 62.8202C43.9624 62.3905 43.1978 62.1756 42.3216 62.1756C41.4454 62.1756 40.6808 62.3905 40.0278 62.8202C39.3748 63.2499 38.867 63.8806 38.5042 64.7122C38.147 65.5437 37.9685 66.565 37.9685 67.7761C37.9685 68.9871 38.147 70.0085 38.5042 70.84C38.867 71.6716 39.3748 72.3022 40.0278 72.7319C40.6808 73.1617 41.4454 73.3765 42.3216 73.3765C43.1978 73.3765 43.9624 73.1617 44.6153 72.7319C45.2683 72.3022 45.7734 71.6716 46.1306 70.84C46.4933 70.0085 46.6747 68.9871 46.6747 67.7761ZM59.1125 76.3484H53.0349V59.2038H59.1627C60.8872 59.2038 62.3718 59.547 63.6163 60.2335C64.8609 60.9143 65.818 61.8938 66.4877 63.1718C67.163 64.4498 67.5006 65.979 67.5006 67.7593C67.5006 69.5452 67.163 71.08 66.4877 72.3636C65.818 73.6472 64.8553 74.6323 63.5996 75.3187C62.3494 76.0052 60.8538 76.3484 59.1125 76.3484ZM56.6597 73.2426H58.9618C60.0334 73.2426 60.9347 73.0528 61.6658 72.6733C62.4025 72.2883 62.955 71.6939 63.3233 70.8902C63.6972 70.081 63.8842 69.0374 63.8842 67.7593C63.8842 66.4925 63.6972 65.4572 63.3233 64.6536C62.955 63.8499 62.4053 63.2583 61.6742 62.8788C60.9431 62.4993 60.0417 62.3096 58.9702 62.3096H56.6597V73.2426ZM72.174 76.3484H68.2896L74.2082 59.2038H78.8795L84.7897 76.3484H80.9053L76.6108 63.1216H76.4769L72.174 76.3484ZM71.9312 69.6094H81.1062V72.4389H71.9312V69.6094Z" fill="#D9D9D9"/>
<path fill-rule="evenodd" clip-rule="evenodd" d="M41.9977 5.92045L44.8789 7.51051L20.2576 46.1118H27.8161L50.4917 10.42L53.298 11.8071L53.4103 0L41.9977 5.92045ZM65.7958 46.1118L49.1072 19.7912L45.4776 25.7455L58.1624 46.1118H65.7958Z" fill="#D9D9D9"/>
<path fill-rule="evenodd" clip-rule="evenodd" d="M53.8975 46.1117L42.8591 29.2976L32.6064 46.1117H39.454L42.8591 40.8679L46.339 46.1117H53.8975Z" fill="#D9D9D9"/>
</svg>
