<svg width="120" height="115" viewBox="0 0 120 115" fill="none" xmlns="http://www.w3.org/2000/svg">
<path d="M6.24294 106.923H0.787715L9.09987 82.8452H15.6602L23.9606 106.923H18.5054L12.4741 88.3475H12.286L6.24294 106.923ZM5.90198 97.4591H18.7876V101.433H5.90198V97.4591ZM26.8587 106.923V82.8452H36.3583C38.1767 82.8452 39.7287 83.1705 41.0141 83.8211C42.3074 84.4638 43.291 85.3769 43.9651 86.5604C44.647 87.7361 44.9879 89.1195 44.9879 90.7106C44.9879 92.3096 44.6431 93.6851 43.9533 94.8373C43.2636 95.9817 42.2642 96.8595 40.9553 97.4709C39.6542 98.0822 38.0788 98.3879 36.229 98.3879H29.8685V94.2965H35.406C36.3779 94.2965 37.1852 94.1633 37.828 93.8968C38.4707 93.6303 38.9488 93.2305 39.2623 92.6976C39.5837 92.1646 39.7443 91.5023 39.7443 90.7106C39.7443 89.9112 39.5837 89.2371 39.2623 88.6884C38.9488 88.1398 38.4668 87.7244 37.8162 87.4422C37.1735 87.1522 36.3623 87.0072 35.3825 87.0072H31.9495V106.923H26.8587ZM39.8619 95.966L45.8462 106.923H40.2264L34.3714 95.966H39.8619ZM70.7121 94.8844C70.7121 97.5101 70.2144 99.7439 69.219 101.586C68.2314 103.428 66.8833 104.835 65.1746 105.807C63.4738 106.771 61.5613 107.253 59.4372 107.253C57.2975 107.253 55.3772 106.767 53.6763 105.795C51.9755 104.823 50.6313 103.416 49.6437 101.574C48.6561 99.7321 48.1623 97.5022 48.1623 94.8844C48.1623 92.2586 48.6561 90.0248 49.6437 88.1829C50.6313 86.341 51.9755 84.938 53.6763 83.9739C55.3772 83.002 57.2975 82.5161 59.4372 82.5161C61.5613 82.5161 63.4738 83.002 65.1746 83.9739C66.8833 84.938 68.2314 86.341 69.219 88.1829C70.2144 90.0248 70.7121 92.2586 70.7121 94.8844ZM65.5508 94.8844C65.5508 93.1835 65.2961 91.7492 64.7866 90.5813C64.285 89.4135 63.5757 88.5278 62.6586 87.9242C61.7416 87.3207 60.6678 87.019 59.4372 87.019C58.2067 87.019 57.1329 87.3207 56.2158 87.9242C55.2988 88.5278 54.5855 89.4135 54.0761 90.5813C53.5744 91.7492 53.3236 93.1835 53.3236 94.8844C53.3236 96.5852 53.5744 98.0195 54.0761 99.1874C54.5855 100.355 55.2988 101.241 56.2158 101.844C57.1329 102.448 58.2067 102.75 59.4372 102.75C60.6678 102.75 61.7416 102.448 62.6586 101.844C63.5757 101.241 64.285 100.355 64.7866 99.1874C65.2961 98.0195 65.5508 96.5852 65.5508 94.8844ZM83.0187 106.923H74.4832V82.8452H83.0892C85.5112 82.8452 87.5961 83.3273 89.3439 84.2913C91.0918 85.2476 92.436 86.6231 93.3766 88.418C94.325 90.2129 94.7992 92.3605 94.7992 94.8608C94.7992 97.369 94.325 99.5244 93.3766 101.327C92.436 103.13 91.084 104.513 89.3204 105.477C87.5647 106.441 85.4641 106.923 83.0187 106.923ZM79.5739 102.562H82.8071C84.312 102.562 85.5778 102.295 86.6046 101.762C87.6392 101.221 88.4151 100.387 88.9324 99.2579C89.4576 98.1214 89.7202 96.6557 89.7202 94.8608C89.7202 93.0816 89.4576 91.6277 88.9324 90.499C88.4151 89.3703 87.6431 88.5395 86.6163 88.0065C85.5896 87.4736 84.3237 87.2071 82.8188 87.2071H79.5739V102.562ZM101.362 106.923H95.9073L104.219 82.8452H110.78L119.08 106.923H113.625L107.594 88.3475H107.406L101.362 106.923ZM101.022 97.4591H113.907V101.433H101.022V97.4591Z" fill="#95C3FF"/>
<path fill-rule="evenodd" clip-rule="evenodd" d="M58.9824 8.31479L63.0288 10.5479L28.4502 64.7603H39.0655L70.9115 14.634L74.8528 16.5821L75.0105 0L58.9824 8.31479ZM92.4049 64.7603L68.9671 27.7951L63.8697 36.1575L81.6845 64.7603H92.4049Z" fill="#95C3FF"/>
<path fill-rule="evenodd" clip-rule="evenodd" d="M75.6951 64.7601L60.1925 41.1461L45.7935 64.7601H55.4103L60.1925 57.3956L65.0797 64.7601H75.6951Z" fill="#95C3FF"/>
</svg>
