<svg width="13" height="13" viewBox="0 0 13 13" fill="none" xmlns="http://www.w3.org/2000/svg">
<path d="M6.48061 1.17119C8.19836 1.17119 8.43259 1.17119 9.13531 1.17119C9.75995 1.17119 10.0723 1.32735 10.3065 1.40543C10.6188 1.56159 10.8531 1.63967 11.0873 1.87391C11.3215 2.10815 11.4777 2.34239 11.5558 2.65471C11.6339 2.88894 11.7119 3.20126 11.79 3.8259C11.79 4.52862 11.79 4.68477 11.79 6.48061C11.79 8.27643 11.79 8.43259 11.79 9.13531C11.79 9.75995 11.6339 10.0723 11.5558 10.3065C11.3996 10.6188 11.3215 10.8531 11.0873 11.0873C10.8531 11.3215 10.6188 11.4777 10.3065 11.5558C10.0723 11.6339 9.75995 11.7119 9.13531 11.79C8.43259 11.79 8.27643 11.79 6.48061 11.79C4.68477 11.79 4.52862 11.79 3.8259 11.79C3.20126 11.79 2.88894 11.6339 2.65471 11.5558C2.34239 11.3996 2.10815 11.3215 1.87391 11.0873C1.63967 10.8531 1.48351 10.6188 1.40543 10.3065C1.32735 10.0723 1.24927 9.75995 1.17119 9.13531C1.17119 8.43259 1.17119 8.27643 1.17119 6.48061C1.17119 4.68477 1.17119 4.52862 1.17119 3.8259C1.17119 3.20126 1.32735 2.88894 1.40543 2.65471C1.56159 2.34239 1.63967 2.10815 1.87391 1.87391C2.10815 1.63967 2.34239 1.48351 2.65471 1.40543C2.88894 1.32735 3.20126 1.24927 3.8259 1.17119C4.52862 1.17119 4.76285 1.17119 6.48061 1.17119ZM6.48061 0C4.68477 0 4.52862 0 3.8259 0C3.12318 0 2.65471 0.15616 2.26431 0.312319C1.87391 0.468478 1.48351 0.702717 1.09311 1.09311C0.702717 1.48351 0.546557 1.79583 0.312319 2.26431C0.15616 2.65471 0.0780796 3.12318 0 3.8259C0 4.52862 0 4.76285 0 6.48061C0 8.27643 0 8.43259 0 9.13531C0 9.83803 0.15616 10.3065 0.312319 10.6969C0.468478 11.0873 0.702717 11.4777 1.09311 11.8681C1.48351 12.2585 1.79583 12.4147 2.26431 12.6489C2.65471 12.8051 3.12318 12.8831 3.8259 12.9612C4.52862 12.9612 4.76285 12.9612 6.48061 12.9612C8.19836 12.9612 8.43259 12.9612 9.13531 12.9612C9.83803 12.9612 10.3065 12.8051 10.6969 12.6489C11.0873 12.4927 11.4777 12.2585 11.8681 11.8681C12.2585 11.4777 12.4147 11.1654 12.6489 10.6969C12.8051 10.3065 12.8831 9.83803 12.9612 9.13531C12.9612 8.43259 12.9612 8.19836 12.9612 6.48061C12.9612 4.76285 12.9612 4.52862 12.9612 3.8259C12.9612 3.12318 12.8051 2.65471 12.6489 2.26431C12.4927 1.87391 12.2585 1.48351 11.8681 1.09311C11.4777 0.702717 11.1654 0.546557 10.6969 0.312319C10.3065 0.15616 9.83803 0.0780796 9.13531 0C8.43259 0 8.27643 0 6.48061 0Z" fill="#FFBA07"/>
<path d="M6.48061 3.12318C4.6067 3.12318 3.12318 4.6067 3.12318 6.48061C3.12318 8.35452 4.6067 9.83803 6.48061 9.83803C8.35452 9.83803 9.83803 8.35452 9.83803 6.48061C9.83803 4.6067 8.35452 3.12318 6.48061 3.12318ZM6.48061 8.66683C5.30941 8.66683 4.29438 7.72988 4.29438 6.48061C4.29438 5.30941 5.23133 4.29438 6.48061 4.29438C7.6518 4.29438 8.66683 5.23133 8.66683 6.48061C8.66683 7.6518 7.6518 8.66683 6.48061 8.66683Z" fill="#FFBA07"/>
<path d="M9.91611 3.8259C10.3473 3.8259 10.6969 3.47633 10.6969 3.0451C10.6969 2.61388 10.3473 2.26431 9.91611 2.26431C9.48488 2.26431 9.13531 2.61388 9.13531 3.0451C9.13531 3.47633 9.48488 3.8259 9.91611 3.8259Z" fill="#FFBA07"/>
</svg>
