<svg width="111" height="119" viewBox="0 0 111 119" fill="none" xmlns="http://www.w3.org/2000/svg">
<path d="M87.3304 76.1653L100.12 41.6462C100.594 40.3677 101.508 39.4175 102.862 38.7956C104.215 38.1738 105.532 38.0997 106.81 38.5734C108.089 39.047 109.039 39.9609 109.661 41.3148C110.283 42.6688 110.357 43.985 109.883 45.2635L95.2848 84.664C94.768 86.0587 93.8725 87.0487 92.5982 87.634C91.3239 88.2193 89.9893 88.2536 88.5946 87.7369L68.72 80.3731C67.4415 79.8995 66.4914 78.9856 65.8695 77.6317C65.2476 76.2777 65.1735 74.9615 65.6472 73.683C66.1209 72.4045 67.0347 71.4544 68.3886 70.8325C69.7426 70.2106 71.0588 70.1365 72.3373 70.6102L87.3304 76.1653ZM45.6598 117.729C43.0315 118.936 40.3529 119.034 37.6239 118.023C34.8949 117.012 32.9245 115.191 31.7127 112.561L0.984161 45.6602C-0.22303 43.032 -0.319476 40.3526 0.694822 37.6222C1.70912 34.8917 3.52807 32.9221 6.15169 31.7131L26.1026 22.5495C25.6983 19.3595 26.3593 16.284 28.0856 13.323C29.8118 10.362 32.1875 8.18487 35.2125 6.79159C38.3983 5.32832 41.6582 4.91696 44.9924 5.5575C48.3266 6.19804 51.0696 7.71002 53.2214 10.0934L73.0529 0.984644C75.6811 -0.222547 78.3621 -0.319727 81.0957 0.693108C83.8293 1.70594 85.7974 3.52563 86.9999 6.15217L95.7795 25.2668C96.4014 26.6207 96.4643 27.9672 95.9682 29.3061C95.4721 30.645 94.548 31.6231 93.1958 32.2403C91.8435 32.8576 90.4987 32.9197 89.1612 32.4268C87.8238 31.9339 86.8441 31.0105 86.2222 29.6566L77.4426 10.542L67.8853 14.9317L72.2751 24.489C72.897 25.843 72.9599 27.1894 72.4638 28.5284C71.9677 29.8673 71.0436 30.8454 69.6914 31.4626L31.4621 49.0217C30.1082 49.6436 28.7633 49.7058 27.4276 49.2082C26.0918 48.7107 25.1122 47.7873 24.4886 46.438L20.0988 36.8807L10.5415 41.2705L41.27 108.172L65.1632 97.1972C66.5172 96.5753 67.8636 96.5124 69.2026 97.0084C70.5415 97.5045 71.5196 98.4287 72.1368 99.7809C72.754 101.133 72.8169 102.48 72.3255 103.82C71.8341 105.161 70.9099 106.139 69.553 106.754L45.6598 117.729ZM46.7671 22.965C47.2615 21.6307 47.1977 20.2866 46.5758 18.9327C45.9539 17.5787 44.9743 16.6553 43.6368 16.1624C42.2993 15.6695 40.9545 15.7317 39.6023 16.3489C38.25 16.9661 37.3266 17.9458 36.832 19.2879C36.3374 20.63 36.3995 21.9749 37.0185 23.3224C37.6375 24.67 38.6179 25.595 39.9597 26.0975C41.3016 26.5999 42.6457 26.5362 43.9921 25.9062C45.3384 25.2762 46.2634 24.2958 46.7671 22.965Z" fill="#12376B"/>
</svg>
