<svg width="132" height="93" viewBox="0 0 132 93" fill="none" xmlns="http://www.w3.org/2000/svg">
<path d="M0.000179572 14.0831L5.43155 3.58699L131.458 69.6188L126.026 80.1149L73.4509 52.5674C63.1119 55.9404 54.5221 63.258 49.5487 72.9295L34.6879 65.1536C39.3871 56.0762 46.4041 48.4036 55.0267 42.9143L38.3941 34.2014C30.7231 40.6071 24.412 48.4836 19.8329 57.3666L4.98914 49.5855C9.57637 40.8174 15.5379 32.8403 22.6474 25.9571L0.000179572 14.0831ZM129.064 10.4953L121.353 25.3826C112.486 20.7319 102.78 17.9 92.8031 17.0533C82.8267 16.2066 72.7817 17.3622 63.2582 20.4521L44.1131 10.4093C69.8528 -2.9336 101.378 -4.02463 129.073 10.4927M88.5162 33.6718C97.2869 33.9575 105.881 36.2137 113.661 40.273L110.94 45.4293L88.5162 33.6718ZM64.4011 80.7079L86.6766 92.3813L98.2381 70.0475C95.32 68.5085 92.1257 67.5634 88.84 67.2667C85.5543 66.9701 82.2424 67.3277 79.0958 68.3191C75.9492 69.3104 73.0303 70.9158 70.508 73.0423C67.9857 75.1688 65.9101 77.7742 64.4011 80.7079Z" fill="#12396F"/>
</svg>
