<svg width="150" height="148" viewBox="0 0 150 148" fill="none" xmlns="http://www.w3.org/2000/svg">
<path fill-rule="evenodd" clip-rule="evenodd" d="M139.083 79.2698C137.953 82.6302 136.45 85.8533 134.602 88.8785L94.1436 64.1615L118.861 23.7031C128.028 29.3038 135.022 37.8521 138.696 47.9475C142.37 58.0429 142.507 69.0868 139.083 79.2698ZM129.791 73.5932C131.357 67.6734 131.425 61.4568 129.987 55.5045C128.549 49.5522 125.652 44.0516 121.557 39.4992L108.627 60.6634L129.791 73.5932Z" fill="#12376B"/>
<path fill-rule="evenodd" clip-rule="evenodd" d="M24.7167 46.4404C28.4293 40.3633 33.4632 35.2006 39.4446 31.3358C45.426 27.4709 52.2012 25.0031 59.2671 24.1157C66.333 23.2282 73.508 23.9439 80.2593 26.2096C87.0107 28.4753 93.1649 32.2328 98.265 37.2031L79.6586 67.6593L110.115 86.2657C107.988 92.5911 104.55 98.3963 100.026 103.302C95.501 108.207 89.9919 112.102 83.8585 114.732C77.7251 117.361 71.1057 118.667 64.4332 118.562C57.7606 118.458 51.1853 116.946 45.1373 114.125C39.0893 111.305 33.7049 107.239 29.3361 102.195C24.9674 97.15 21.7128 91.2399 19.7853 84.851C17.8577 78.4621 17.3007 71.7383 18.1505 65.1193C19.0003 58.5002 21.2378 52.1352 24.7167 46.4404ZM95.7618 89.8434L65.1752 71.1574L83.8612 40.5708C77.8118 36.8751 70.8023 35.0562 63.7191 35.3442C56.6359 35.6322 49.7972 38.0141 44.0677 42.1888C38.3382 46.3634 33.9754 52.1433 31.5308 58.7975C29.0863 65.4518 28.6698 72.6814 30.3342 79.5723C31.9985 86.4632 35.6688 92.7059 40.881 97.5108C46.0932 102.316 52.6132 105.467 59.6165 106.567C66.6198 107.666 73.7918 106.664 80.2256 103.687C86.6594 100.711 92.066 95.8929 95.7618 89.8434Z" fill="#12376B"/>
</svg>
