<svg width="125" height="119" viewBox="0 0 125 119" fill="none" xmlns="http://www.w3.org/2000/svg">
<path d="M122.764 72.3081L85.4337 7.35809C83.4596 3.97663 80.236 1.50616 76.4576 0.479084C72.764 -0.494974 68.8353 0.0287499 65.5259 1.93634L47.0286 12.5538C46.0374 13.1198 45.1409 13.8376 44.3717 14.6809C42.5813 13.2673 40.4835 12.2946 38.2477 11.8414C36.012 11.3882 33.701 11.4673 31.5014 12.0722L10.9022 17.5917C7.13392 18.6014 3.92112 21.0667 1.97053 24.4452C0.0199424 27.8237 -0.508644 31.8387 0.501054 35.607L19.7912 107.599C20.2854 109.471 21.1443 111.227 22.3188 112.766C23.4932 114.306 24.96 115.598 26.6351 116.569C28.3102 117.541 30.1605 118.172 32.08 118.426C33.9994 118.681 35.9503 118.554 37.8206 118.053L58.4198 112.533C60.2926 112.031 62.0482 111.165 63.5864 109.985C65.1246 108.805 66.4152 107.333 67.3847 105.654C68.3541 103.975 68.9833 102.121 69.2364 100.199C69.4894 98.2769 69.3614 96.3236 68.8596 94.4508L61.6134 67.4077L78.9654 97.5173C79.9229 99.1997 81.2102 100.671 82.7502 101.844C84.2902 103.017 86.0511 103.867 87.9274 104.343C90.4112 105.014 93.0321 105.014 95.5146 104.348C96.7684 104.028 97.9631 103.557 99.0987 102.935L117.596 92.3178C119.282 91.361 120.76 90.0781 121.944 88.5441C123.129 87.01 123.996 85.2555 124.496 83.3828C124.995 81.51 125.116 79.5566 124.853 77.6364C124.59 75.7162 123.946 73.8677 122.961 72.1987L122.764 72.3081ZM42.5309 95.2784C40.6407 95.7961 38.6393 95.7409 36.7804 95.1199C34.9216 94.499 33.2889 93.3401 32.0894 91.7902C30.8899 90.2403 30.1775 88.3692 30.0426 86.414C29.9076 84.4588 30.3562 82.5076 31.3314 80.8076C32.3066 79.1076 33.7646 77.7354 35.5205 76.8649C37.2764 75.9945 39.2513 75.6649 41.1947 75.918C43.1381 76.1711 44.9627 76.9955 46.4371 78.2867C47.9115 79.5778 48.9693 81.2777 49.4766 83.1707C50.1048 85.6807 49.7251 88.3368 48.419 90.5702C47.1128 92.8036 44.984 94.4368 42.4884 95.1199L42.5309 95.2784ZM95.1938 80.5447C93.2716 81.0597 91.2399 80.9932 89.3555 80.3535C87.4712 79.7139 85.8188 78.5298 84.6074 76.9511C83.396 75.3723 82.6799 73.4698 82.5498 71.4841C82.4196 69.4984 82.8812 67.5187 83.8762 65.7953C84.8712 64.072 86.3549 62.6824 88.1396 61.8022C89.9244 60.9221 91.93 60.591 93.903 60.8507C95.8759 61.1104 97.7275 61.9494 99.2236 63.2615C100.72 64.5735 101.793 66.2998 102.308 68.222C102.946 70.7648 102.565 73.4559 101.248 75.7225C99.9312 77.9892 97.7816 79.6523 95.2569 80.3579L95.1938 80.5447Z" fill="#12376A"/>
</svg>
