<svg width="110" height="112" viewBox="0 0 110 112" fill="none" xmlns="http://www.w3.org/2000/svg">
<path d="M80.8562 32.9749C80.3801 32.1502 79.5959 31.5485 78.6761 31.302C77.7563 31.0555 76.7763 31.1846 75.9516 31.6607L63.514 38.8416C62.6893 39.3177 62.0876 40.1019 61.8411 41.0217C61.5946 41.9415 61.7237 42.9215 62.1998 43.7462L78.3568 71.7309L72.1379 75.3213L33.2415 7.95078C31.499 4.93258 30.3609 2.98051 29.342 1.65615C28.3817 0.414057 27.8431 0.161125 27.4704 0.0612461C27.0976 -0.0386326 26.5048 -0.0888394 25.0521 0.506669C23.5034 1.14655 21.5459 2.26565 18.5277 4.00821C15.5095 5.75077 13.5574 6.88885 12.233 7.90775C10.9909 8.8681 10.738 9.40661 10.6381 9.77936C10.5383 10.1521 10.488 10.7449 11.0836 12.1977C11.7234 13.7464 12.8425 15.7039 14.5851 18.7221L53.4815 86.0926L47.2627 89.683L19.1376 40.969C18.6615 40.1443 17.8772 39.5426 16.9574 39.2961C16.0377 39.0496 15.0576 39.1787 14.233 39.6548L1.79532 46.8357C0.970654 47.3118 0.368902 48.096 0.122444 49.0158C-0.124015 49.9356 0.00500846 50.9156 0.48113 51.7403L28.6062 100.454L21.3509 104.643C20.5263 105.119 19.9245 105.904 19.678 106.823C19.4316 107.743 19.5606 108.723 20.0367 109.548C20.5129 110.372 21.2971 110.974 22.2169 111.221C23.1367 111.467 24.1167 111.338 24.9414 110.862L107.859 62.9895C108.684 62.5134 109.285 61.7292 109.532 60.8094C109.778 59.8896 109.649 58.9096 109.173 58.0849C108.697 57.2602 107.913 56.6585 106.993 56.412C106.073 56.1656 105.093 56.2946 104.268 56.7707L97.0132 60.9596L80.8562 32.9749Z" fill="#12376A"/>
</svg>
