<svg width="108" height="116" viewBox="0 0 108 116" fill="none" xmlns="http://www.w3.org/2000/svg">
<path d="M76.4472 40.0112C77.6723 39.3039 79.1282 39.1122 80.4945 39.4783C81.8609 39.8444 83.0259 40.7384 83.7332 41.9634L107.735 83.5354L52.3054 115.538L28.3038 73.9656C27.5965 72.7405 27.4049 71.2847 27.771 69.9183C28.1371 68.5519 29.031 67.3869 30.2561 66.6796L76.4472 40.0112ZM49.4471 67.9173L40.2089 73.251L45.5426 82.4892L54.7808 77.1555L49.4471 67.9173ZM37.3506 25.6307C42.4974 22.6571 48.3707 21.1757 54.3122 21.3526C60.2536 21.5295 66.0284 23.3576 70.9892 26.6321L65.1079 35.5398C61.8013 33.3559 57.9518 32.136 53.9909 32.0169C50.0299 31.8978 46.1141 32.8842 42.6823 34.8656C39.2505 36.8469 36.4383 39.7449 34.561 43.2347C32.6837 46.7245 31.8154 50.6682 32.0535 54.6238L21.3984 55.2633C21.0431 49.3299 22.3473 43.4147 25.1648 38.1808C27.9824 32.9469 32.2019 28.6012 37.3506 25.6307ZM26.6832 7.15425C35.2616 2.19789 45.0509 -0.27124 54.9538 0.023652C64.8567 0.31854 74.4818 3.36579 82.7501 8.82381L76.8687 17.7316C70.2546 13.365 62.555 10.9268 54.633 10.6902C46.711 10.4537 38.8797 12.4282 32.0169 16.3925C25.1523 20.3537 19.5267 26.1486 15.7705 33.1275C12.0144 40.1064 10.2761 47.9935 10.7507 55.9048L0.0956211 56.5444C-0.497022 46.6548 1.67652 36.7957 6.37259 28.072C11.0687 19.3484 18.1016 12.1052 26.6832 7.15425Z" fill="#12396F"/>
</svg>
