<svg width="1418" height="301" viewBox="0 0 1418 301" fill="none" xmlns="http://www.w3.org/2000/svg">
<path d="M107.283 6.83068H160.724L271.222 293.723H217.379L190.458 217.781H75.9421L49.0208 293.723H-2.81267L107.283 6.83068ZM89.6037 179.609H177.198L134.205 56.2533H132.999L89.6037 179.609ZM298.542 6.83068H435.559C467.168 6.83068 490.875 13.6615 506.679 27.323C522.484 40.9845 530.386 60.0036 530.386 84.38C530.386 98.0416 528.377 109.426 524.359 118.534C520.341 127.374 515.653 134.606 510.296 140.232C504.938 145.589 499.581 149.473 494.223 151.884C489.134 154.295 485.384 155.902 482.973 156.706V157.509C487.259 158.045 491.812 159.385 496.634 161.528C501.724 163.671 506.412 167.153 510.698 171.975C514.984 176.529 518.466 182.556 521.145 190.056C524.091 197.557 525.565 206.932 525.565 218.183C525.565 235.059 526.77 250.462 529.181 264.391C531.86 278.053 535.878 287.83 541.235 293.723H487.393C483.642 287.562 481.365 280.731 480.562 273.231C480.026 265.73 479.758 258.498 479.758 251.533C479.758 238.407 478.955 227.157 477.347 217.781C475.74 208.138 472.793 200.235 468.508 194.074C464.222 187.645 458.328 182.957 450.828 180.011C443.595 177.064 434.22 175.591 422.701 175.591H348.768V293.723H298.542V6.83068ZM348.768 137.419H431.139C447.212 137.419 459.4 133.669 467.704 126.168C476.008 118.4 480.16 106.881 480.16 91.6126C480.16 82.5049 478.821 75.1384 476.142 69.5131C473.463 63.6198 469.713 59.066 464.891 55.8515C460.337 52.637 454.98 50.4941 448.819 49.4226C442.926 48.3511 436.765 47.8153 430.336 47.8153H348.768V137.419ZM703.607 40.9846C688.339 40.9846 675.079 44.0651 663.828 50.2262C652.845 56.3873 643.872 64.6914 636.907 75.1384C629.942 85.3176 624.719 96.9701 621.236 110.096C618.022 123.222 616.414 136.615 616.414 150.277C616.414 163.938 618.022 177.332 621.236 190.458C624.719 203.584 629.942 215.37 636.907 225.817C643.872 235.996 652.845 244.167 663.828 250.328C675.079 256.489 688.339 259.569 703.607 259.569C718.876 259.569 732.002 256.489 742.985 250.328C754.235 244.167 763.343 235.996 770.308 225.817C777.272 215.37 782.362 203.584 785.577 190.458C789.059 177.332 790.8 163.938 790.8 150.277C790.8 136.615 789.059 123.222 785.577 110.096C782.362 96.9701 777.272 85.3176 770.308 75.1384C763.343 64.6914 754.235 56.3873 742.985 50.2262C732.002 44.0651 718.876 40.9846 703.607 40.9846ZM703.607 -7.77166e-05C725.037 -7.77166e-05 744.19 4.01802 761.066 12.0542C778.21 20.0904 792.675 30.9393 804.462 44.6008C816.248 58.2624 825.222 74.2009 831.383 92.4162C837.812 110.632 841.026 129.919 841.026 150.277C841.026 170.903 837.812 190.324 831.383 208.539C825.222 226.755 816.248 242.693 804.462 256.355C792.675 270.016 778.21 280.865 761.066 288.901C744.19 296.67 725.037 300.554 703.607 300.554C682.177 300.554 662.891 296.67 645.747 288.901C628.871 280.865 614.539 270.016 602.753 256.355C590.967 242.693 581.859 226.755 575.43 208.539C569.269 190.324 566.188 170.903 566.188 150.277C566.188 129.919 569.269 110.632 575.43 92.4162C581.859 74.2009 590.967 58.2624 602.753 44.6008C614.539 30.9393 628.871 20.0904 645.747 12.0542C662.891 4.01802 682.177 -7.77166e-05 703.607 -7.77166e-05ZM886.739 6.83068H1005.67C1027.64 6.83068 1046.66 10.5809 1062.73 18.0814C1078.8 25.5818 1091.93 35.8949 1102.11 49.0208C1112.29 61.8787 1119.79 77.0135 1124.61 94.4253C1129.7 111.837 1132.24 130.454 1132.24 150.277C1132.24 170.1 1129.7 188.717 1124.61 206.129C1119.79 223.54 1112.29 238.809 1102.11 251.935C1091.93 264.793 1078.8 274.972 1062.73 282.472C1046.66 289.973 1027.64 293.723 1005.67 293.723H886.739V6.83068ZM936.965 252.739H986.387C1005.94 252.739 1021.88 250.194 1034.2 245.104C1046.79 239.747 1056.57 232.514 1063.53 223.406C1070.77 214.031 1075.59 203.182 1078 190.86C1080.68 178.27 1082.02 164.742 1082.02 150.277C1082.02 135.812 1080.68 122.418 1078 110.096C1075.59 97.5059 1070.77 86.657 1063.53 77.5493C1056.57 68.1737 1046.79 60.9411 1034.2 55.8515C1021.88 50.4941 1005.94 47.8153 986.387 47.8153H936.965V252.739ZM1253.46 6.83068H1306.9L1417.4 293.723H1363.56L1336.64 217.781H1222.12L1195.2 293.723H1143.37L1253.46 6.83068ZM1235.78 179.609H1323.38L1280.38 56.2533H1279.18L1235.78 179.609Z" fill="white"/>
<path d="M107.283 6.83068H160.724L271.222 293.723H217.379L190.458 217.781H75.9421L49.0208 293.723H-2.81267L107.283 6.83068ZM89.6037 179.609H177.198L134.205 56.2533H132.999L89.6037 179.609ZM298.542 6.83068H435.559C467.168 6.83068 490.875 13.6615 506.679 27.323C522.484 40.9845 530.386 60.0036 530.386 84.38C530.386 98.0416 528.377 109.426 524.359 118.534C520.341 127.374 515.653 134.606 510.296 140.232C504.938 145.589 499.581 149.473 494.223 151.884C489.134 154.295 485.384 155.902 482.973 156.706V157.509C487.259 158.045 491.812 159.385 496.634 161.528C501.724 163.671 506.412 167.153 510.698 171.975C514.984 176.529 518.466 182.556 521.145 190.056C524.091 197.557 525.565 206.932 525.565 218.183C525.565 235.059 526.77 250.462 529.181 264.391C531.86 278.053 535.878 287.83 541.235 293.723H487.393C483.642 287.562 481.365 280.731 480.562 273.231C480.026 265.73 479.758 258.498 479.758 251.533C479.758 238.407 478.955 227.157 477.347 217.781C475.74 208.138 472.793 200.235 468.508 194.074C464.222 187.645 458.328 182.957 450.828 180.011C443.595 177.064 434.22 175.591 422.701 175.591H348.768V293.723H298.542V6.83068ZM348.768 137.419H431.139C447.212 137.419 459.4 133.669 467.704 126.168C476.008 118.4 480.16 106.881 480.16 91.6126C480.16 82.5049 478.821 75.1384 476.142 69.5131C473.463 63.6198 469.713 59.066 464.891 55.8515C460.337 52.637 454.98 50.4941 448.819 49.4226C442.926 48.3511 436.765 47.8153 430.336 47.8153H348.768V137.419ZM703.607 40.9846C688.339 40.9846 675.079 44.0651 663.828 50.2262C652.845 56.3873 643.872 64.6914 636.907 75.1384C629.942 85.3176 624.719 96.9701 621.236 110.096C618.022 123.222 616.414 136.615 616.414 150.277C616.414 163.938 618.022 177.332 621.236 190.458C624.719 203.584 629.942 215.37 636.907 225.817C643.872 235.996 652.845 244.167 663.828 250.328C675.079 256.489 688.339 259.569 703.607 259.569C718.876 259.569 732.002 256.489 742.985 250.328C754.235 244.167 763.343 235.996 770.308 225.817C777.272 215.37 782.362 203.584 785.577 190.458C789.059 177.332 790.8 163.938 790.8 150.277C790.8 136.615 789.059 123.222 785.577 110.096C782.362 96.9701 777.272 85.3176 770.308 75.1384C763.343 64.6914 754.235 56.3873 742.985 50.2262C732.002 44.0651 718.876 40.9846 703.607 40.9846ZM703.607 -7.77166e-05C725.037 -7.77166e-05 744.19 4.01802 761.066 12.0542C778.21 20.0904 792.675 30.9393 804.462 44.6008C816.248 58.2624 825.222 74.2009 831.383 92.4162C837.812 110.632 841.026 129.919 841.026 150.277C841.026 170.903 837.812 190.324 831.383 208.539C825.222 226.755 816.248 242.693 804.462 256.355C792.675 270.016 778.21 280.865 761.066 288.901C744.19 296.67 725.037 300.554 703.607 300.554C682.177 300.554 662.891 296.67 645.747 288.901C628.871 280.865 614.539 270.016 602.753 256.355C590.967 242.693 581.859 226.755 575.43 208.539C569.269 190.324 566.188 170.903 566.188 150.277C566.188 129.919 569.269 110.632 575.43 92.4162C581.859 74.2009 590.967 58.2624 602.753 44.6008C614.539 30.9393 628.871 20.0904 645.747 12.0542C662.891 4.01802 682.177 -7.77166e-05 703.607 -7.77166e-05ZM886.739 6.83068H1005.67C1027.64 6.83068 1046.66 10.5809 1062.73 18.0814C1078.8 25.5818 1091.93 35.8949 1102.11 49.0208C1112.29 61.8787 1119.79 77.0135 1124.61 94.4253C1129.7 111.837 1132.24 130.454 1132.24 150.277C1132.24 170.1 1129.7 188.717 1124.61 206.129C1119.79 223.54 1112.29 238.809 1102.11 251.935C1091.93 264.793 1078.8 274.972 1062.73 282.472C1046.66 289.973 1027.64 293.723 1005.67 293.723H886.739V6.83068ZM936.965 252.739H986.387C1005.94 252.739 1021.88 250.194 1034.2 245.104C1046.79 239.747 1056.57 232.514 1063.53 223.406C1070.77 214.031 1075.59 203.182 1078 190.86C1080.68 178.27 1082.02 164.742 1082.02 150.277C1082.02 135.812 1080.68 122.418 1078 110.096C1075.59 97.5059 1070.77 86.657 1063.53 77.5493C1056.57 68.1737 1046.79 60.9411 1034.2 55.8515C1021.88 50.4941 1005.94 47.8153 986.387 47.8153H936.965V252.739ZM1253.46 6.83068H1306.9L1417.4 293.723H1363.56L1336.64 217.781H1222.12L1195.2 293.723H1143.37L1253.46 6.83068ZM1235.78 179.609H1323.38L1280.38 56.2533H1279.18L1235.78 179.609Z" fill="url(#paint0_linear_5454_1410)" fill-opacity="0.2"/>
<defs>
<linearGradient id="paint0_linear_5454_1410" x1="707.5" y1="6.72314" x2="707.5" y2="293.723" gradientUnits="userSpaceOnUse">
<stop offset="0.292381" stop-opacity="0"/>
<stop offset="1" stop-color="#051E40"/>
</linearGradient>
</defs>
</svg>
