<?xml version="1.0" encoding="UTF-8"?>
<svg id="Layer_2" data-name="Layer 2" xmlns="http://www.w3.org/2000/svg" xmlns:xlink="http://www.w3.org/1999/xlink" viewBox="0 0 13408.31 2848.67">
  <defs>
    <style>
      .cls-1 {
        fill: url(#linear-gradient);
      }

      .cls-2 {
        fill: #d4a942;
      }

      .cls-3 {
        fill: #0c284d;
      }

      .cls-4 {
        fill: #0d284d;
      }
    </style>
    <linearGradient id="linear-gradient" x1="0" y1="2469.05" x2="946.96" y2="2469.05" gradientUnits="userSpaceOnUse">
      <stop offset=".56" stop-color="#fb7300"/>
      <stop offset=".67" stop-color="#fb7300"/>
    </linearGradient>
  </defs>
  <g id="Layer_1-2" data-name="Layer 1">
    <g>
      <g>
        <path class="cls-3" d="M4887.76,173.73l416.92,1066.95h-156.91l-116.56-321.28h-451.29l-119.54,321.28h-144.95l415.42-1066.95h156.91ZM4986.39,799.86l-177.83-497.61h-2.99l-180.82,497.61h361.63Z"/>
        <path class="cls-3" d="M5483.99,468.11v162.88h2.98c30.87-62.75,68.74-109.09,113.57-138.97,44.83-29.89,101.62-43.83,170.36-41.83v134.49c-50.81,0-94.14,6.98-130.01,20.92-35.86,13.97-64.77,34.37-86.67,61.27-21.93,26.9-37.88,59.54-47.82,97.87-9.97,38.36-14.94,82.45-14.94,132.26v343.69h-127.02V468.11h119.55Z"/>
        <path class="cls-3" d="M5802.28,696c15.93-49.31,39.83-92.14,71.73-128.51,31.87-36.37,71.22-65.01,118.05-85.93,46.82-20.93,100.61-31.38,161.39-31.38s115.81,10.45,162.13,31.38c46.33,20.92,85.41,49.56,117.3,85.93,31.87,36.37,55.78,79.2,71.73,128.51,15.93,49.31,23.91,102.36,23.91,159.14s-7.98,109.6-23.91,158.4c-15.95,48.83-39.86,91.41-71.73,127.78-31.89,36.37-70.97,64.76-117.3,85.18-46.33,20.4-100.38,30.62-162.13,30.62s-114.58-10.22-161.39-30.62c-46.83-20.42-86.18-48.81-118.05-85.18-31.9-36.37-55.8-78.95-71.73-127.78-15.95-48.8-23.91-101.61-23.91-158.4s7.96-109.83,23.91-159.14ZM5931.54,979.93c12.44,36.37,29.63,66.75,51.55,91.14,21.9,24.42,47.57,43.11,76.96,56.04,29.37,12.96,60.52,19.42,93.39,19.42s64-6.46,93.39-19.42c29.37-12.93,55.03-31.62,76.96-56.04,21.91-24.39,39.09-54.78,51.56-91.14,12.44-36.37,18.67-77.95,18.67-124.78s-6.23-88.4-18.67-124.77c-12.47-36.37-29.65-66.99-51.56-91.91-21.92-24.89-47.58-43.83-76.96-56.79-29.4-12.93-60.52-19.42-93.39-19.42s-64.03,6.49-93.39,19.42c-29.4,12.96-55.06,31.9-76.96,56.79-21.92,24.92-39.11,55.54-51.55,91.91-12.47,36.37-18.68,77.95-18.68,124.77s6.22,88.42,18.68,124.78Z"/>
        <path class="cls-3" d="M7221.89,1240.68v-104.6h-2.99c-20.92,42.85-53.8,73.73-98.63,92.64-44.82,18.92-94.14,28.39-147.94,28.39-59.77,0-111.84-10.96-156.15-32.86-44.34-21.91-81.21-51.3-110.58-88.17-29.4-36.85-51.56-79.7-66.5-128.52-14.94-48.8-22.41-100.6-22.41-155.41s7.21-106.58,21.66-155.41c14.43-48.8,36.36-91.39,65.76-127.78,29.37-36.35,66.24-65.23,110.58-86.66,44.31-21.42,95.87-32.13,154.66-32.13,19.92,0,41.33,2.01,64.26,5.98,22.9,3.99,45.81,10.72,68.74,20.17,22.9,9.48,44.57,21.93,65,37.36,20.4,15.45,37.59,34.62,51.55,57.52h2.99V173.73h127.02v1066.95h-127.02ZM6765.36,966.48c9.45,34.37,23.91,65.01,43.34,91.91,19.43,26.9,44.32,48.33,74.72,64.25,30.37,15.95,65.98,23.91,106.84,23.91s79.2-8.44,109.09-25.4c29.89-16.92,54.29-39.08,73.22-66.49,18.91-27.4,32.61-58.52,41.09-93.4,8.45-34.86,12.7-70.23,12.7-106.1,0-37.85-4.49-74.46-13.45-109.83-8.97-35.36-23.17-66.5-42.59-93.4-19.43-26.9-44.6-48.56-75.47-64.99-30.89-16.45-68.25-24.65-112.08-24.65s-79.2,8.47-109.09,25.4c-29.88,16.94-53.8,39.36-71.72,67.24-17.93,27.91-30.89,59.78-38.86,95.64-7.98,35.87-11.95,72.73-11.95,110.58,0,35.87,4.72,70.97,14.2,105.35Z"/>
        <path class="cls-3" d="M8209.62,1237.69c-21.92,12.94-52.3,19.42-91.15,19.42-32.88,0-59.03-9.22-78.46-27.65-19.42-18.41-29.13-48.56-29.13-90.4-34.89,41.83-75.47,71.99-121.79,90.4-46.32,18.43-96.38,27.65-150.18,27.65-34.88,0-67.99-3.99-99.37-11.95-31.38-7.96-58.54-20.4-81.44-37.36-22.93-16.93-41.09-39.08-54.54-66.49-13.45-27.4-20.18-60.52-20.18-99.38,0-43.83,7.48-79.68,22.41-107.59,14.94-27.88,34.61-50.54,59.03-67.98,24.4-17.43,52.3-30.64,83.68-39.61,31.38-8.97,63.51-16.43,96.38-22.41,34.86-6.96,67.99-12.2,99.37-15.7,31.38-3.47,59.02-8.44,82.94-14.94,23.91-6.46,42.82-15.92,56.79-28.39,13.94-12.44,20.92-30.64,20.92-54.54,0-27.88-5.23-50.29-15.69-67.25-10.46-16.92-23.91-29.87-40.35-38.84-16.44-8.97-34.88-14.95-55.29-17.93-20.43-2.99-40.6-4.49-60.52-4.49-53.8,0-98.63,10.22-134.5,30.64-35.86,20.42-55.29,59.01-58.27,115.8h-127.02c1.99-47.81,11.95-88.15,29.89-121.03,17.93-32.88,41.84-59.51,71.72-79.95,29.89-20.4,64-35.12,102.37-44.09,38.34-8.96,79.43-13.44,123.28-13.44,34.86,0,69.49,2.49,103.85,7.48,34.37,4.97,65.5,15.14,93.4,30.56,27.88,15.41,50.29,37.03,67.24,64.86,16.92,27.82,25.4,64.11,25.4,108.82v396.65c0,29.84,1.73,51.7,5.23,65.61,3.47,13.93,15.17,20.87,35.11,20.87,10.95,0,23.91-1.98,38.85-5.97v98.62ZM8003.4,841.71c-15.95,11.9-36.87,20.57-62.76,26.03-25.92,5.45-53.05,9.92-81.44,13.37-28.39,3.49-57.04,7.45-85.93,11.92-28.91,4.46-54.8,11.65-77.7,21.55-22.93,9.89-41.61,24.02-56.04,42.38-14.45,18.35-21.67,43.39-21.67,75.09,0,20.83,4.23,38.4,12.7,52.78,8.46,14.39,19.43,26.03,32.88,34.96,13.45,8.91,29.14,15.36,47.07,19.33,17.93,3.97,36.84,5.92,56.78,5.92,41.84,0,77.71-5.69,107.6-17.09,29.88-11.39,54.29-25.77,73.22-43.12,18.92-17.34,32.88-36.19,41.84-56.49,8.96-20.32,13.45-39.42,13.45-57.25v-129.37Z"/>
        <path class="cls-3" d="M4929.6,1609.63c50.81,0,97.13,4.49,138.97,13.44,41.84,8.97,77.7,23.69,107.59,44.09,29.89,20.43,53.05,47.58,69.49,81.44,16.44,33.87,24.65,75.72,24.65,125.52,0,53.8-12.21,98.63-36.61,134.49-24.43,35.87-60.52,65.27-108.34,88.17,65.75,18.94,114.8,52.07,147.19,99.38,32.36,47.32,48.56,104.37,48.56,171.09,0,53.8-10.46,100.38-31.38,139.72-20.92,39.37-49.08,71.5-84.43,96.39-35.38,24.9-75.72,43.33-121.04,55.29-45.34,11.95-91.91,17.93-139.72,17.93h-517.04v-1066.95h502.1ZM4899.71,2041.49c41.84,0,76.21-9.94,103.11-29.89,26.9-19.91,40.35-52.3,40.35-97.12,0-24.89-4.49-45.32-13.45-61.27-8.97-15.92-20.92-28.39-35.87-37.36-14.94-8.96-32.12-15.17-51.55-18.67-19.43-3.47-39.6-5.23-60.52-5.23h-219.67v249.55h237.6ZM4913.16,2494.28c22.9,0,44.83-2.24,65.75-6.73,20.92-4.49,39.34-11.96,55.29-22.41,15.93-10.47,28.63-24.65,38.1-42.6,9.46-17.93,14.2-40.84,14.2-68.73,0-54.78-15.46-93.89-46.32-117.31-30.89-23.39-71.73-35.12-122.53-35.12h-255.54v292.9h251.05Z"/>
        <path class="cls-3" d="M5960.68,2676.58v-107.59h-4.49c-26.9,44.82-61.78,77.22-104.6,97.12-42.85,19.92-86.67,29.89-131.5,29.89-56.79,0-103.37-7.46-139.72-22.41-36.38-14.94-65.01-36.1-85.93-63.51-20.92-27.38-35.63-60.74-44.08-100.12-8.47-39.34-12.7-82.94-12.7-130.75v-475.2h212.2v436.34c0,63.76,9.95,111.33,29.88,142.71,19.92,31.38,55.29,47.07,106.1,47.07,57.76,0,99.6-17.18,125.52-51.55,25.89-34.37,38.85-90.9,38.85-169.61v-404.96h212.19v772.57h-201.73Z"/>
        <path class="cls-3" d="M6482.93,2484.56c9.45,16.43,21.67,29.89,36.61,40.35,14.94,10.45,32.13,18.18,51.56,23.16,19.42,5,39.6,7.46,60.52,7.46,14.94,0,30.64-1.72,47.07-5.22,16.44-3.49,31.38-8.97,44.83-16.45,13.45-7.48,24.65-17.41,33.62-29.89,8.96-12.44,13.45-28.13,13.45-47.07,0-31.87-21.17-55.77-63.51-71.72-42.35-15.93-101.38-31.88-177.08-47.83-30.89-6.95-61.04-15.17-90.41-24.65-29.4-9.45-55.55-21.9-78.45-37.35-22.93-15.44-41.35-34.87-55.29-58.28-13.96-23.39-20.92-52.05-20.92-85.93,0-49.81,9.71-90.65,29.13-122.54,19.43-31.87,45.07-57.02,76.96-75.46,31.87-18.43,67.74-31.38,107.59-38.84,39.83-7.48,80.69-11.21,122.53-11.21s82.42,3.99,121.79,11.95c39.34,7.99,74.46,21.44,105.35,40.35,30.87,18.94,56.53,44.08,76.96,75.46,20.4,31.38,32.61,70.99,36.61,118.8h-201.73c-2.99-40.84-18.45-68.48-46.33-82.94-27.9-14.42-60.77-21.66-98.63-21.66-11.95,0-24.91.75-38.85,2.24-13.96,1.5-26.66,4.73-38.1,9.7-11.46,5-21.17,12.21-29.14,21.68-7.98,9.47-11.95,22.18-11.95,38.1,0,18.94,6.96,34.37,20.92,46.32,13.93,11.96,32.12,21.68,54.54,29.14,22.41,7.48,48.05,14.2,76.96,20.18,28.88,5.97,58.28,12.46,88.17,19.42,30.86,6.98,61.01,15.45,90.4,25.4,29.37,9.97,55.53,23.16,78.45,39.61,22.9,16.43,41.33,36.87,55.29,61.26,13.94,24.44,20.92,54.54,20.92,90.41,0,50.81-10.23,93.4-30.64,127.76-20.43,34.37-47.07,62.02-79.95,82.94-32.88,20.93-70.49,35.63-112.82,44.09-42.35,8.44-85.43,12.69-129.26,12.69s-88.67-4.49-131.5-13.44c-42.85-8.97-80.95-23.91-114.32-44.84-33.38-20.92-60.77-48.56-82.19-82.94-21.43-34.36-33.13-77.44-35.11-129.26h201.73c0,22.93,4.72,42.6,14.2,59.03Z"/>
        <path class="cls-3" d="M7093.35,1784.47v-174.84h212.19v174.84h-212.19ZM7305.54,1904.01v772.57h-212.19v-772.57h212.19Z"/>
        <path class="cls-3" d="M7655.21,1904.01v107.59h4.49c26.9-44.82,61.76-77.44,104.6-97.87,42.82-20.4,86.67-30.64,131.51-30.64,56.79,0,103.34,7.72,139.72,23.16,36.35,15.46,65,36.87,85.92,64.26,20.92,27.41,35.61,60.77,44.08,100.12,8.45,39.37,12.7,82.94,12.7,130.75v475.2h-212.19v-436.34c0-63.75-9.97-111.33-29.89-142.71-19.94-31.38-55.29-47.07-106.1-47.07-57.79,0-99.63,17.18-125.52,51.55-25.92,34.37-38.85,90.92-38.85,169.61v404.96h-212.2v-772.57h201.73Z"/>
        <path class="cls-3" d="M8547.31,2491.29c31.87,30.88,77.7,46.32,137.48,46.32,42.82,0,79.69-10.69,110.57-32.13,30.87-21.4,49.81-44.08,56.79-67.98h186.8c-29.89,92.64-75.72,158.91-137.48,198.74-61.78,39.87-136.5,59.78-224.15,59.78-60.78,0-115.58-9.7-164.38-29.14-48.82-19.42-90.17-47.07-124.03-82.94-33.87-35.85-60.03-78.68-78.45-128.51-18.45-49.81-27.65-104.6-27.65-164.38s9.45-111.56,28.39-161.39c18.91-49.81,45.81-92.89,80.69-129.26,34.86-36.35,76.44-65.01,124.78-85.93,48.31-20.92,101.84-31.38,160.64-31.38,65.75,0,123.03,12.69,171.85,38.11,48.8,25.4,88.91,59.53,120.29,102.36,31.38,42.85,54.03,91.67,67.99,146.43,13.94,54.81,18.91,112.08,14.94,171.85h-557.39c2.99,68.75,20.41,118.57,52.31,149.44ZM8787.15,2084.83c-25.4-27.88-64.02-41.85-115.81-41.85-33.88,0-62.02,5.75-84.43,17.18-22.42,11.48-40.35,25.67-53.8,42.6-13.45,16.94-22.93,34.89-28.39,53.8-5.49,18.94-8.74,35.87-9.72,50.81h345.19c-9.97-53.8-27.65-94.63-53.05-122.53Z"/>
        <path class="cls-3" d="M9337.05,2484.56c9.45,16.43,21.67,29.89,36.61,40.35,14.94,10.45,32.13,18.18,51.56,23.16,19.42,5,39.6,7.46,60.52,7.46,14.94,0,30.64-1.72,47.07-5.22,16.44-3.49,31.38-8.97,44.83-16.45,13.45-7.48,24.65-17.41,33.62-29.89,8.96-12.44,13.45-28.13,13.45-47.07,0-31.87-21.17-55.77-63.51-71.72-42.35-15.93-101.38-31.88-177.08-47.83-30.89-6.95-61.04-15.17-90.41-24.65-29.4-9.45-55.55-21.9-78.45-37.35-22.93-15.44-41.35-34.87-55.29-58.28-13.96-23.39-20.92-52.05-20.92-85.93,0-49.81,9.71-90.65,29.13-122.54,19.43-31.87,45.07-57.02,76.96-75.46,31.87-18.43,67.74-31.38,107.59-38.84,39.83-7.48,80.69-11.21,122.53-11.21s82.42,3.99,121.79,11.95c39.34,7.99,74.46,21.44,105.35,40.35,30.87,18.94,56.53,44.08,76.96,75.46,20.4,31.38,32.61,70.99,36.61,118.8h-201.73c-2.99-40.84-18.45-68.48-46.33-82.94-27.9-14.42-60.77-21.66-98.63-21.66-11.95,0-24.91.75-38.85,2.24-13.96,1.5-26.66,4.73-38.1,9.7-11.46,5-21.17,12.21-29.14,21.68-7.98,9.47-11.95,22.18-11.95,38.1,0,18.94,6.96,34.37,20.92,46.32,13.93,11.96,32.12,21.68,54.54,29.14,22.41,7.48,48.05,14.2,76.96,20.18,28.88,5.97,58.28,12.46,88.17,19.42,30.86,6.98,61.01,15.45,90.4,25.4,29.37,9.97,55.53,23.16,78.45,39.61,22.9,16.43,41.33,36.87,55.29,61.26,13.94,24.44,20.92,54.54,20.92,90.41,0,50.81-10.23,93.4-30.64,127.76-20.43,34.37-47.07,62.02-79.95,82.94-32.88,20.93-70.49,35.63-112.82,44.09-42.35,8.44-85.43,12.69-129.26,12.69s-88.67-4.49-131.5-13.44c-42.85-8.97-80.95-23.91-114.32-44.84-33.38-20.92-60.77-48.56-82.19-82.94-21.43-34.36-33.13-77.44-35.11-129.26h201.73c0,22.93,4.72,42.6,14.2,59.03Z"/>
        <path class="cls-3" d="M10120.06,2484.56c9.45,16.43,21.67,29.89,36.61,40.35,14.94,10.45,32.13,18.18,51.56,23.16,19.42,5,39.6,7.46,60.52,7.46,14.94,0,30.64-1.72,47.07-5.22,16.44-3.49,31.38-8.97,44.83-16.45,13.45-7.48,24.65-17.41,33.62-29.89,8.96-12.44,13.45-28.13,13.45-47.07,0-31.87-21.17-55.77-63.51-71.72-42.35-15.93-101.38-31.88-177.08-47.83-30.89-6.95-61.04-15.17-90.41-24.65-29.4-9.45-55.55-21.9-78.45-37.35-22.93-15.44-41.35-34.87-55.29-58.28-13.96-23.39-20.92-52.05-20.92-85.93,0-49.81,9.71-90.65,29.13-122.54,19.43-31.87,45.07-57.02,76.96-75.46,31.87-18.43,67.74-31.38,107.59-38.84,39.83-7.48,80.69-11.21,122.53-11.21s82.42,3.99,121.79,11.95c39.34,7.99,74.46,21.44,105.35,40.35,30.87,18.94,56.53,44.08,76.96,75.46,20.4,31.38,32.61,70.99,36.61,118.8h-201.73c-2.99-40.84-18.45-68.48-46.33-82.94-27.9-14.42-60.77-21.66-98.63-21.66-11.95,0-24.91.75-38.85,2.24-13.96,1.5-26.66,4.73-38.1,9.7-11.46,5-21.17,12.21-29.14,21.68-7.98,9.47-11.95,22.18-11.95,38.1,0,18.94,6.96,34.37,20.92,46.32,13.93,11.96,32.12,21.68,54.54,29.14,22.41,7.48,48.05,14.2,76.96,20.18,28.88,5.97,58.28,12.46,88.17,19.42,30.86,6.98,61.01,15.45,90.4,25.4,29.37,9.97,55.53,23.16,78.45,39.61,22.9,16.43,41.33,36.87,55.29,61.26,13.94,24.44,20.92,54.54,20.92,90.41,0,50.81-10.23,93.4-30.64,127.76-20.43,34.37-47.07,62.02-79.95,82.94-32.88,20.93-70.49,35.63-112.82,44.09-42.35,8.44-85.43,12.69-129.26,12.69s-88.67-4.49-131.5-13.44c-42.85-8.97-80.95-23.91-114.32-44.84-33.38-20.92-60.77-48.56-82.19-82.94-21.43-34.36-33.13-77.44-35.11-129.26h201.73c0,22.93,4.72,42.6,14.2,59.03Z"/>
        <path class="cls-3" d="M11624.08,1609.63c66.73,0,123.52,9.72,170.36,29.14,46.82,19.42,84.92,45.09,114.32,76.96,29.37,31.9,50.81,68.25,64.25,109.09,13.45,40.87,20.17,83.2,20.17,127.01s-6.72,84.94-20.17,126.28c-13.45,41.35-34.89,77.97-64.25,109.83-29.4,31.9-67.5,57.53-114.32,76.96-46.84,19.42-103.63,29.14-170.36,29.14h-246.56v382.55h-234.61v-1066.95h481.18ZM11559.82,2111.73c26.9,0,52.79-1.99,77.7-5.98,24.89-3.97,46.82-11.7,65.76-23.16,18.91-11.45,34.11-27.65,45.57-48.58,11.44-20.92,17.19-48.3,17.19-82.19s-5.75-61.26-17.19-82.19c-11.46-20.92-26.66-37.1-45.57-48.56-18.94-11.43-40.87-19.17-65.76-23.16-24.91-3.97-50.81-5.98-77.7-5.98h-182.31v319.8h182.31Z"/>
        <path class="cls-3" d="M12299.5,1904.01v143.46h2.99c9.95-23.91,23.39-46.07,40.35-66.5,16.93-20.4,36.36-37.85,58.28-52.3,21.9-14.42,45.32-25.64,70.23-33.63,24.89-7.96,50.81-11.95,77.7-11.95,13.94,0,29.37,2.49,46.33,7.48v197.24c-9.97-1.98-21.93-3.72-35.87-5.22-13.96-1.5-27.41-2.24-40.35-2.24-38.85,0-71.72,6.49-98.62,19.42-26.9,12.96-48.57,30.64-65.01,53.05-16.43,22.41-28.16,48.56-35.11,78.45-6.98,29.89-10.46,62.27-10.46,97.14v348.17h-212.2v-772.57h201.73Z"/>
        <path class="cls-3" d="M12637.23,2122.93c18.91-50.29,45.81-93.14,80.69-128.51,34.86-35.36,76.7-62.77,125.52-82.19,48.8-19.42,103.6-29.14,164.38-29.14s115.81,9.72,165.12,29.14c49.31,19.42,91.39,46.83,126.27,82.19,34.86,35.37,61.75,78.22,80.69,128.51,18.91,50.32,28.39,106.36,28.39,168.11s-9.48,117.56-28.39,167.37c-18.94,49.82-45.84,92.42-80.69,127.76-34.89,35.38-76.96,62.53-126.27,81.44-49.32,18.92-104.37,28.39-165.12,28.39s-115.58-9.47-164.38-28.39c-48.83-18.91-90.67-46.06-125.52-81.44-34.89-35.34-61.78-77.94-80.69-127.76-18.94-49.81-28.39-105.58-28.39-167.37s9.45-117.79,28.39-168.11ZM12830,2381.45c5.97,29.39,16.18,55.8,30.64,79.2,14.42,23.42,33.62,42.1,57.53,56.04,23.91,13.95,53.8,20.92,89.66,20.92s65.98-6.96,90.4-20.92c24.4-13.94,43.83-32.61,58.28-56.04,14.43-23.39,24.65-49.81,30.64-79.2,5.97-29.37,8.96-59.53,8.96-90.41s-2.99-61.27-8.96-91.16c-5.98-29.89-16.2-56.27-30.64-79.2-14.45-22.9-33.88-41.59-58.28-56.04-24.42-14.42-54.54-21.66-90.4-21.66s-65.75,7.24-89.66,21.66c-23.91,14.45-43.1,33.14-57.53,56.04-14.46,22.93-24.66,49.31-30.64,79.2-5.98,29.89-8.97,60.29-8.97,91.16s2.99,61.04,8.97,90.41Z"/>
      </g>
      <g>
        <path class="cls-1" d="M383.4,2184.6L0,2848.67h742.04c157.52,0,255.97-170.52,177.21-306.93l-206.19-357.14c-73.26-126.88-256.39-126.88-329.65,0L0,2848.67h742.04c157.52,0,255.97-170.52,177.21-306.93l-206.19-357.14c-73.26-126.88-256.39-126.88-329.65,0Z"/>
        <path class="cls-2" d="M1479.85,2184.6l-206.19,357.14c-78.76,136.42,19.69,306.93,177.21,306.93h387.62c157.52,0,255.97-170.52,177.21-306.93l-206.19-357.14c-73.26-126.88-256.39-126.88-329.65,0l-206.19,357.14c-78.76,136.42,19.69,306.93,177.21,306.93h387.62c157.52,0,255.97-170.52,177.21-306.93l-206.19-357.14c-73.26-126.88-256.39-126.88-329.65,0Z"/>
        <path class="cls-2" d="M931.63,1235.04l-218.58,378.59c-73.26,126.88,18.31,285.48,164.82,285.48h437.16c146.51,0,238.08-158.6,164.82-285.48l-218.58-378.59c-73.26-126.88-256.39-126.88-329.65,0l-218.58,378.59c-73.26,126.88,18.31,285.48,164.82,285.48h437.16c146.51,0,238.08-158.6,164.82-285.48l-218.58-378.59c-73.26-126.88-256.39-126.88-329.65,0Z"/>
        <path class="cls-4" d="M2028.08,1235.04l-218.58,378.59c-73.26,126.88,18.31,285.48,164.82,285.48h437.16c146.51,0,238.08-158.6,164.82-285.48l-218.58-378.59c-73.26-126.88-256.39-126.88-329.65,0l-218.58,378.59c-73.26,126.88,18.31,285.48,164.82,285.48h437.16c146.51,0,238.08-158.6,164.82-285.48l-218.58-378.59c-73.26-126.88-256.39-126.88-329.65,0Z"/>
        <path class="cls-4" d="M1644.68,0l-383.4,664.07c-73.26,126.88,18.31,285.48,164.82,285.48h437.16c146.51,0,238.08-158.6,164.82-285.48L1644.68,0l-383.4,664.07c-73.26,126.88,18.31,285.48,164.82,285.48h437.16c146.51,0,238.08-158.6,164.82-285.48L1644.68,0Z"/>
        <path class="cls-4" d="M2576.31,2184.6l-206.19,357.14c-78.76,136.42,19.69,306.93,177.21,306.93h742.04l-383.4-664.07c-73.26-126.88-256.39-126.88-329.65,0l-206.19,357.14c-78.76,136.42,19.69,306.93,177.21,306.93h742.04l-383.4-664.07c-73.26-126.88-256.39-126.88-329.65,0Z"/>
      </g>
    </g>
  </g>
</svg>