<svg width="13" height="13" viewBox="0 0 13 13" fill="none" xmlns="http://www.w3.org/2000/svg">
<path d="M2.81087 12.4927H0.156157V4.13822H2.81087V12.4927ZM1.48351 2.96702C0.624638 2.96702 0 2.34239 0 1.48351C0 0.624636 0.702717 0 1.48351 0C2.34239 0 2.96703 0.624636 2.96703 1.48351C2.96703 2.34239 2.34239 2.96702 1.48351 2.96702ZM12.4927 12.4927H9.83803V7.96412C9.83803 6.63677 9.29147 6.24637 8.51067 6.24637C7.72987 6.24637 6.94908 6.871 6.94908 8.0422V12.4927H4.29438V4.13822H6.79292V5.30941C7.02716 4.76285 7.96411 3.90398 9.29147 3.90398C10.775 3.90398 12.3366 4.76285 12.3366 7.33948V12.4927H12.4927Z" fill="#FFBA07"/>
</svg>
