<svg width="126" height="131" viewBox="0 0 126 131" fill="none" xmlns="http://www.w3.org/2000/svg">
<path d="M127.112 61.6509L69.286 3.79995C66.8629 1.37584 63.5231 0 60.0522 0H13.0975C5.89389 0 0 5.89647 0 13.1033V60.0785C0 63.5509 1.37524 66.8922 3.86377 69.3163L61.6894 127.167C66.7975 132.278 75.1144 132.278 80.2224 127.167L127.177 80.1921C132.285 75.0818 132.285 66.8267 127.112 61.6509ZM29.4695 39.3098C24.034 39.3098 19.6463 34.9202 19.6463 29.4824C19.6463 24.0445 24.034 19.6549 29.4695 19.6549C34.9049 19.6549 39.2926 24.0445 39.2926 29.4824C39.2926 34.9202 34.9049 39.3098 29.4695 39.3098Z" fill="#133B72" fill-opacity="0.78"/>
</svg>
