<svg width="13" height="11" viewBox="0 0 13 11" fill="none" xmlns="http://www.w3.org/2000/svg">
<path d="M12.4927 1.17119C12.0243 1.40543 11.5558 1.48351 11.0092 1.56159C11.5558 1.24927 11.9462 0.780796 12.1023 0.156159C11.6339 0.468477 11.0873 0.624637 10.4627 0.780796C9.99419 0.312318 9.29147 0 8.58875 0C6.94908 0 5.69981 1.56159 6.09021 3.12318C3.98206 3.0451 2.10815 2.03007 0.780796 0.468478C0.0780796 1.63967 0.468478 3.12318 1.56159 3.90398C1.17119 3.90398 0.780796 3.74782 0.390398 3.59166C0.390398 4.76285 1.24927 5.85597 2.42047 6.16829C2.03007 6.24637 1.63967 6.32445 1.24927 6.24637C1.56159 7.2614 2.49855 8.0422 3.66974 8.0422C2.73279 8.74491 1.32735 9.13531 0 8.97915C1.17119 9.68187 2.49855 10.1503 3.90398 10.1503C8.66683 10.1503 11.3215 6.16829 11.1654 2.49855C11.7119 2.18623 12.1804 1.71775 12.4927 1.17119Z" fill="#FFBA07"/>
</svg>
